<?xml version="1.0" standalone="no"?>
<!DOCTYPE svg PUBLIC "-//W3C//DTD SVG 20010904//EN"
 "http://www.w3.org/TR/2001/REC-SVG-20010904/DTD/svg10.dtd">
<svg version="1.0" xmlns="http://www.w3.org/2000/svg"
 width="980.000000pt" height="980.000000pt" viewBox="0 0 980.000000 980.000000"
 preserveAspectRatio="xMidYMid meet">
<metadata>
Created by potrace 1.14, written by Peter Selinger 2001-2017
</metadata>
<g transform="translate(0.000000,980.000000) scale(0.100000,-0.100000)"
fill="#000000" stroke="none">
<path d="M2367 7299 c773 -1005 1641 -2770 2370 -4819 l30 -85 566 -3 566 -2
-50 147 c-208 604 -620 1473 -990 2090 -428 714 -864 1285 -1373 1801 -337
341 -657 612 -1011 853 -203 139 -201 138 -108 18z"/>
<path d="M6210 5763 c-100 -236 -197 -462 -215 -503 -18 -41 -101 -236 -185
-432 -84 -197 -155 -356 -159 -353 -4 2 -48 62 -97 132 -186 268 -397 538
-614 787 -122 140 -400 436 -456 485 -22 19 -68 61 -103 95 -78 75 -74 67 60
-111 595 -788 1169 -1768 1640 -2801 26 -57 50 -103 54 -103 4 0 58 118 120
263 320 748 861 2014 990 2318 81 190 176 412 211 493 35 82 64 151 64 153 0
2 -254 4 -564 4 l-564 0 -182 -427z"/>
</g>
</svg>
